<svg width="16" height="17" viewBox="0 0 16 17" fill="none" xmlns="http://www.w3.org/2000/svg">
<g id="icons-16/points">
<path id="Subtract" fill-rule="evenodd" clip-rule="evenodd" d="M16 8.5C16 12.9183 12.4183 16.5 8 16.5C3.58172 16.5 0 12.9183 0 8.5C0 4.08172 3.58172 0.5 8 0.5C12.4183 0.5 16 4.08172 16 8.5ZM10 4.5C10 5.05228 9.55229 5.5 9 5.5C8.44771 5.5 8 5.05228 8 4.5C8 3.94772 8.44771 3.5 9 3.5C9.55229 3.5 10 3.94772 10 4.5ZM10 4.5C10 3.94772 10.4477 3.5 11 3.5C11.5523 3.5 12 3.94772 12 4.5C12 5.05228 11.5523 5.5 11 5.5C10.4477 5.5 10 5.05228 10 4.5ZM7 3.5C7.55228 3.5 8 3.94772 8 4.5C8 5.05228 7.55228 5.5 7 5.5C6.44772 5.5 6 5.05228 6 4.5C6 3.94772 6.44772 3.5 7 3.5ZM5 6.5C5.55228 6.5 6 6.05228 6 5.5C6 4.94772 5.55228 4.5 5 4.5C4.44772 4.5 4 4.94772 4 5.5C4 6.05228 4.44772 6.5 5 6.5ZM5 8.5C4.44772 8.5 4 8.05228 4 7.5C4 6.94772 4.44772 6.5 5 6.5C5.55228 6.5 6 6.94772 6 7.5C6 8.05228 5.55228 8.5 5 8.5ZM5 10.5C5.55228 10.5 6 10.0523 6 9.5C6 8.94771 5.55228 8.5 5 8.5C4.44772 8.5 4 8.94771 4 9.5C4 10.0523 4.44772 10.5 5 10.5ZM5 10.5C4.44772 10.5 4 10.9477 4 11.5C4 12.0523 4.44772 12.5 5 12.5C5.55228 12.5 6 12.0523 6 11.5C6 10.9477 5.55228 10.5 5 10.5ZM7 13.5C7.55228 13.5 8 13.0523 8 12.5C8 13.0523 8.44771 13.5 9 13.5C9.55229 13.5 10 13.0523 10 12.5C10 11.9477 9.55229 11.5 9 11.5C8.44771 11.5 8 11.9477 8 12.5C8 11.9477 7.55228 11.5 7 11.5C6.44772 11.5 6 11.9477 6 12.5C6 13.0523 6.44772 13.5 7 13.5ZM11 12.5C11.5523 12.5 12 12.0523 12 11.5C12 10.9477 11.5523 10.5 11 10.5C11.5523 10.5 12 10.0523 12 9.5C12 8.94771 11.5523 8.5 11 8.5C10.4477 8.5 10 8.94771 10 9.5C10 10.0523 10.4477 10.5 11 10.5C10.4477 10.5 10 10.9477 10 11.5C10 12.0523 10.4477 12.5 11 12.5ZM9 9.5C9.55229 9.5 10 9.05229 10 8.5C10 7.94772 9.55229 7.5 9 7.5C8.44771 7.5 8 7.94772 8 8.5C8 9.05229 8.44771 9.5 9 9.5Z" fill="#42FF60"/>
</g>
</svg>
