<svg width="321" height="153" viewBox="0 0 321 153" fill="none" xmlns="http://www.w3.org/2000/svg">
<path d="M0.449219 35.1148L106.044 0H244.748L308.456 37.3721V42.1377L244.748 16.0525H107.298L62.6525 31.6033V101.331L80.7115 108.856H166.993L207.626 87.2852L169 56.1836H215.151H244.748V112.869L209.633 124.908H103.536H80.7115L0.449219 91.8V35.1148Z" fill="#42FF60"/>
<path d="M320.494 117.885L214.899 153H76.1958L12.4876 115.628V110.862L76.1958 136.948H213.645L258.291 121.397V51.6688L240.232 44.1443H153.95L113.317 65.7148L151.943 96.8164H105.792H76.1958V40.1311L111.311 28.0918H217.407H240.232L320.494 61.2V117.885Z" fill="#42FF60"/>
</svg>
