<svg width="105" height="50" viewBox="0 0 105 50" fill="none" xmlns="http://www.w3.org/2000/svg">
<path id="Union" fill-rule="evenodd" clip-rule="evenodd" d="M34.5082 0L0 11.4754V30L26.2295 40.8197H33.6885H68.3606L79.8361 36.8852V18.3607H70.1639H55.082L67.7049 28.5246L54.4262 35.5738H26.2295L20.3279 33.1148V10.3279L34.918 5.2459H79.8361L100.656 13.7705V12.2131L79.8361 0H34.5082ZM70.0821 50L104.59 38.5246V20L78.3607 9.18033H70.9017H36.2296L24.7542 13.1148V31.6393H34.4263H49.5083L36.8853 21.4754L50.164 14.4262H78.3607L84.2624 16.8852V39.6721L69.6722 44.7541H24.7542L3.93452 36.2295V37.7869L24.7542 50H70.0821Z" fill="#42FF60"/>
</svg>
