<svg width="172" height="43" viewBox="0 0 172 43" fill="none" xmlns="http://www.w3.org/2000/svg">
<rect width="172" height="43" rx="21.5" fill="black"/>
<path d="M21.8705 29C21.1805 29 20.6105 28.43 20.6105 27.74C20.6105 27.05 21.1805 26.48 21.8705 26.48C22.5605 26.48 23.1305 27.05 23.1305 27.74C23.1305 28.43 22.5605 29 21.8705 29ZM21.8705 25.88C21.1805 25.88 20.6105 25.31 20.6105 24.62C20.6105 23.93 21.1805 23.36 21.8705 23.36C22.5605 23.36 23.1305 23.93 23.1305 24.62C23.1305 25.31 22.5605 25.88 21.8705 25.88ZM19.3505 22.76C18.6605 22.76 18.0905 22.19 18.0905 21.5C18.0905 20.81 18.6605 20.24 19.3505 20.24C20.0405 20.24 20.6105 20.81 20.6105 21.5C20.6105 22.19 20.0405 22.76 19.3505 22.76ZM16.8305 22.76C16.1405 22.76 15.5705 22.19 15.5705 21.5C15.5705 20.81 16.1405 20.24 16.8305 20.24C17.5205 20.24 18.0905 20.81 18.0905 21.5C18.0905 22.19 17.5205 22.76 16.8305 22.76ZM24.3905 22.76C23.7005 22.76 23.1305 22.19 23.1305 21.5C23.1305 20.81 23.7005 20.24 24.3905 20.24C25.0805 20.24 25.6505 20.81 25.6505 21.5C25.6505 22.19 25.0805 22.76 24.3905 22.76ZM21.8705 22.76C21.1805 22.76 20.6105 22.19 20.6105 21.5C20.6105 20.81 21.1805 20.24 21.8705 20.24C22.5605 20.24 23.1305 20.81 23.1305 21.5C23.1305 22.19 22.5605 22.76 21.8705 22.76ZM26.9105 22.76C26.2205 22.76 25.6505 22.19 25.6505 21.5C25.6505 20.81 26.2205 20.24 26.9105 20.24C27.6005 20.24 28.1705 20.81 28.1705 21.5C28.1705 22.19 27.6005 22.76 26.9105 22.76ZM21.8705 19.64C21.1805 19.64 20.6105 19.07 20.6105 18.38C20.6105 17.69 21.1805 17.12 21.8705 17.12C22.5605 17.12 23.1305 17.69 23.1305 18.38C23.1305 19.07 22.5605 19.64 21.8705 19.64ZM21.8705 16.52C21.1805 16.52 20.6105 15.95 20.6105 15.26C20.6105 14.57 21.1805 14 21.8705 14C22.5605 14 23.1305 14.57 23.1305 15.26C23.1305 15.95 22.5605 16.52 21.8705 16.52ZM44.5459 32.12C43.8559 32.12 43.2859 31.55 43.2859 30.86C43.2859 30.17 43.8559 29.6 44.5459 29.6C45.2359 29.6 45.8059 30.17 45.8059 30.86C45.8059 31.55 45.2359 32.12 44.5459 32.12ZM49.5859 32.12C48.8959 32.12 48.3259 31.55 48.3259 30.86C48.3259 30.17 48.8959 29.6 49.5859 29.6C50.2759 29.6 50.8459 30.17 50.8459 30.86C50.8459 31.55 50.2759 32.12 49.5859 32.12ZM47.0659 32.12C46.3759 32.12 45.8059 31.55 45.8059 30.86C45.8059 30.17 46.3759 29.6 47.0659 29.6C47.7559 29.6 48.3259 30.17 48.3259 30.86C48.3259 31.55 47.7559 32.12 47.0659 32.12ZM47.0659 29C46.3759 29 45.8059 28.43 45.8059 27.74C45.8059 27.05 46.3759 26.48 47.0659 26.48C47.7559 26.48 48.3259 27.05 48.3259 27.74C48.3259 28.43 47.7559 29 47.0659 29ZM47.0659 25.88C46.3759 25.88 45.8059 25.31 45.8059 24.62C45.8059 23.93 46.3759 23.36 47.0659 23.36C47.7559 23.36 48.3259 23.93 48.3259 24.62C48.3259 25.31 47.7559 25.88 47.0659 25.88ZM47.0659 22.76C46.3759 22.76 45.8059 22.19 45.8059 21.5C45.8059 20.81 46.3759 20.24 47.0659 20.24C47.7559 20.24 48.3259 20.81 48.3259 21.5C48.3259 22.19 47.7559 22.76 47.0659 22.76ZM42.0259 19.64C41.3359 19.64 40.7659 19.07 40.7659 18.38C40.7659 17.69 41.3359 17.12 42.0259 17.12C42.7159 17.12 43.2859 17.69 43.2859 18.38C43.2859 19.07 42.7159 19.64 42.0259 19.64ZM47.0659 19.64C46.3759 19.64 45.8059 19.07 45.8059 18.38C45.8059 17.69 46.3759 17.12 47.0659 17.12C47.7559 17.12 48.3259 17.69 48.3259 18.38C48.3259 19.07 47.7559 19.64 47.0659 19.64ZM44.5459 16.52C43.8559 16.52 43.2859 15.95 43.2859 15.26C43.2859 14.57 43.8559 14 44.5459 14C45.2359 14 45.8059 14.57 45.8059 15.26C45.8059 15.95 45.2359 16.52 44.5459 16.52ZM47.0659 16.52C46.3759 16.52 45.8059 15.95 45.8059 15.26C45.8059 14.57 46.3759 14 47.0659 14C47.7559 14 48.3259 14.57 48.3259 15.26C48.3259 15.95 47.7559 16.52 47.0659 16.52ZM47.0659 13.4C46.3759 13.4 45.8059 12.83 45.8059 12.14C45.8059 11.45 46.3759 10.88 47.0659 10.88C47.7559 10.88 48.3259 11.45 48.3259 12.14C48.3259 12.83 47.7559 13.4 47.0659 13.4ZM42.0259 32.12C41.3359 32.12 40.7659 31.55 40.7659 30.86C40.7659 30.17 41.3359 29.6 42.0259 29.6C42.7159 29.6 43.2859 30.17 43.2859 30.86C43.2859 31.55 42.7159 32.12 42.0259 32.12ZM52.1059 32.12C51.4159 32.12 50.8459 31.55 50.8459 30.86C50.8459 30.17 51.4159 29.6 52.1059 29.6C52.7959 29.6 53.3659 30.17 53.3659 30.86C53.3659 31.55 52.7959 32.12 52.1059 32.12ZM59.663 32.12C58.973 32.12 58.403 31.55 58.403 30.86C58.403 30.17 58.973 29.6 59.663 29.6C60.353 29.6 60.923 30.17 60.923 30.86C60.923 31.55 60.353 32.12 59.663 32.12ZM62.183 29C61.493 29 60.923 28.43 60.923 27.74C60.923 27.05 61.493 26.48 62.183 26.48C62.873 26.48 63.443 27.05 63.443 27.74C63.443 28.43 62.873 29 62.183 29ZM74.7807 32.12C74.0907 32.12 73.5207 31.55 73.5207 30.86C73.5207 30.17 74.0907 29.6 74.7807 29.6C75.4707 29.6 76.0407 30.17 76.0407 30.86C76.0407 31.55 75.4707 32.12 74.7807 32.12ZM79.8207 32.12C79.1307 32.12 78.5607 31.55 78.5607 30.86C78.5607 30.17 79.1307 29.6 79.8207 29.6C80.5107 29.6 81.0807 30.17 81.0807 30.86C81.0807 31.55 80.5107 32.12 79.8207 32.12ZM77.3007 32.12C76.6107 32.12 76.0407 31.55 76.0407 30.86C76.0407 30.17 76.6107 29.6 77.3007 29.6C77.9907 29.6 78.5607 30.17 78.5607 30.86C78.5607 31.55 77.9907 32.12 77.3007 32.12ZM72.2607 29C71.5707 29 71.0007 28.43 71.0007 27.74C71.0007 27.05 71.5707 26.48 72.2607 26.48C72.9507 26.48 73.5207 27.05 73.5207 27.74C73.5207 28.43 72.9507 29 72.2607 29ZM82.3407 29C81.6507 29 81.0807 28.43 81.0807 27.74C81.0807 27.05 81.6507 26.48 82.3407 26.48C83.0307 26.48 83.6007 27.05 83.6007 27.74C83.6007 28.43 83.0307 29 82.3407 29ZM69.7407 25.88C69.0507 25.88 68.4807 25.31 68.4807 24.62C68.4807 23.93 69.0507 23.36 69.7407 23.36C70.4307 23.36 71.0007 23.93 71.0007 24.62C71.0007 25.31 70.4307 25.88 69.7407 25.88ZM84.8607 25.88C84.1707 25.88 83.6007 25.31 83.6007 24.62C83.6007 23.93 84.1707 23.36 84.8607 23.36C85.5507 23.36 86.1207 23.93 86.1207 24.62C86.1207 25.31 85.5507 25.88 84.8607 25.88ZM69.7407 22.76C69.0507 22.76 68.4807 22.19 68.4807 21.5C68.4807 20.81 69.0507 20.24 69.7407 20.24C70.4307 20.24 71.0007 20.81 71.0007 21.5C71.0007 22.19 70.4307 22.76 69.7407 22.76ZM77.3007 22.76C76.6107 22.76 76.0407 22.19 76.0407 21.5C76.0407 20.81 76.6107 20.24 77.3007 20.24C77.9907 20.24 78.5607 20.81 78.5607 21.5C78.5607 22.19 77.9907 22.76 77.3007 22.76ZM84.8607 22.76C84.1707 22.76 83.6007 22.19 83.6007 21.5C83.6007 20.81 84.1707 20.24 84.8607 20.24C85.5507 20.24 86.1207 20.81 86.1207 21.5C86.1207 22.19 85.5507 22.76 84.8607 22.76ZM69.7407 19.64C69.0507 19.64 68.4807 19.07 68.4807 18.38C68.4807 17.69 69.0507 17.12 69.7407 17.12C70.4307 17.12 71.0007 17.69 71.0007 18.38C71.0007 19.07 70.4307 19.64 69.7407 19.64ZM84.8607 19.64C84.1707 19.64 83.6007 19.07 83.6007 18.38C83.6007 17.69 84.1707 17.12 84.8607 17.12C85.5507 17.12 86.1207 17.69 86.1207 18.38C86.1207 19.07 85.5507 19.64 84.8607 19.64ZM72.2607 16.52C71.5707 16.52 71.0007 15.95 71.0007 15.26C71.0007 14.57 71.5707 14 72.2607 14C72.9507 14 73.5207 14.57 73.5207 15.26C73.5207 15.95 72.9507 16.52 72.2607 16.52ZM82.3407 16.52C81.6507 16.52 81.0807 15.95 81.0807 15.26C81.0807 14.57 81.6507 14 82.3407 14C83.0307 14 83.6007 14.57 83.6007 15.26C83.6007 15.95 83.0307 16.52 82.3407 16.52ZM74.7807 13.4C74.0907 13.4 73.5207 12.83 73.5207 12.14C73.5207 11.45 74.0907 10.88 74.7807 10.88C75.4707 10.88 76.0407 11.45 76.0407 12.14C76.0407 12.83 75.4707 13.4 74.7807 13.4ZM79.8207 13.4C79.1307 13.4 78.5607 12.83 78.5607 12.14C78.5607 11.45 79.1307 10.88 79.8207 10.88C80.5107 10.88 81.0807 11.45 81.0807 12.14C81.0807 12.83 80.5107 13.4 79.8207 13.4ZM77.3007 13.4C76.6107 13.4 76.0407 12.83 76.0407 12.14C76.0407 11.45 76.6107 10.88 77.3007 10.88C77.9907 10.88 78.5607 11.45 78.5607 12.14C78.5607 12.83 77.9907 13.4 77.3007 13.4ZM94.937 32.12C94.247 32.12 93.677 31.55 93.677 30.86C93.677 30.17 94.247 29.6 94.937 29.6C95.627 29.6 96.197 30.17 96.197 30.86C96.197 31.55 95.627 32.12 94.937 32.12ZM99.977 32.12C99.287 32.12 98.717 31.55 98.717 30.86C98.717 30.17 99.287 29.6 99.977 29.6C100.667 29.6 101.237 30.17 101.237 30.86C101.237 31.55 100.667 32.12 99.977 32.12ZM97.457 32.12C96.767 32.12 96.197 31.55 96.197 30.86C96.197 30.17 96.767 29.6 97.457 29.6C98.147 29.6 98.717 30.17 98.717 30.86C98.717 31.55 98.147 32.12 97.457 32.12ZM92.417 29C91.727 29 91.157 28.43 91.157 27.74C91.157 27.05 91.727 26.48 92.417 26.48C93.107 26.48 93.677 27.05 93.677 27.74C93.677 28.43 93.107 29 92.417 29ZM102.497 29C101.807 29 101.237 28.43 101.237 27.74C101.237 27.05 101.807 26.48 102.497 26.48C103.187 26.48 103.757 27.05 103.757 27.74C103.757 28.43 103.187 29 102.497 29ZM89.897 25.88C89.207 25.88 88.637 25.31 88.637 24.62C88.637 23.93 89.207 23.36 89.897 23.36C90.587 23.36 91.157 23.93 91.157 24.62C91.157 25.31 90.587 25.88 89.897 25.88ZM105.017 25.88C104.327 25.88 103.757 25.31 103.757 24.62C103.757 23.93 104.327 23.36 105.017 23.36C105.707 23.36 106.277 23.93 106.277 24.62C106.277 25.31 105.707 25.88 105.017 25.88ZM89.897 22.76C89.207 22.76 88.637 22.19 88.637 21.5C88.637 20.81 89.207 20.24 89.897 20.24C90.587 20.24 91.157 20.81 91.157 21.5C91.157 22.19 90.587 22.76 89.897 22.76ZM97.457 22.76C96.767 22.76 96.197 22.19 96.197 21.5C96.197 20.81 96.767 20.24 97.457 20.24C98.147 20.24 98.717 20.81 98.717 21.5C98.717 22.19 98.147 22.76 97.457 22.76ZM105.017 22.76C104.327 22.76 103.757 22.19 103.757 21.5C103.757 20.81 104.327 20.24 105.017 20.24C105.707 20.24 106.277 20.81 106.277 21.5C106.277 22.19 105.707 22.76 105.017 22.76ZM89.897 19.64C89.207 19.64 88.637 19.07 88.637 18.38C88.637 17.69 89.207 17.12 89.897 17.12C90.587 17.12 91.157 17.69 91.157 18.38C91.157 19.07 90.587 19.64 89.897 19.64ZM105.017 19.64C104.327 19.64 103.757 19.07 103.757 18.38C103.757 17.69 104.327 17.12 105.017 17.12C105.707 17.12 106.277 17.69 106.277 18.38C106.277 19.07 105.707 19.64 105.017 19.64ZM92.417 16.52C91.727 16.52 91.157 15.95 91.157 15.26C91.157 14.57 91.727 14 92.417 14C93.107 14 93.677 14.57 93.677 15.26C93.677 15.95 93.107 16.52 92.417 16.52ZM102.497 16.52C101.807 16.52 101.237 15.95 101.237 15.26C101.237 14.57 101.807 14 102.497 14C103.187 14 103.757 14.57 103.757 15.26C103.757 15.95 103.187 16.52 102.497 16.52ZM94.937 13.4C94.247 13.4 93.677 12.83 93.677 12.14C93.677 11.45 94.247 10.88 94.937 10.88C95.627 10.88 96.197 11.45 96.197 12.14C96.197 12.83 95.627 13.4 94.937 13.4ZM99.977 13.4C99.287 13.4 98.717 12.83 98.717 12.14C98.717 11.45 99.287 10.88 99.977 10.88C100.667 10.88 101.237 11.45 101.237 12.14C101.237 12.83 100.667 13.4 99.977 13.4ZM97.457 13.4C96.767 13.4 96.197 12.83 96.197 12.14C96.197 11.45 96.767 10.88 97.457 10.88C98.147 10.88 98.717 11.45 98.717 12.14C98.717 12.83 98.147 13.4 97.457 13.4ZM115.093 32.12C114.403 32.12 113.833 31.55 113.833 30.86C113.833 30.17 114.403 29.6 115.093 29.6C115.783 29.6 116.353 30.17 116.353 30.86C116.353 31.55 115.783 32.12 115.093 32.12ZM120.133 32.12C119.443 32.12 118.873 31.55 118.873 30.86C118.873 30.17 119.443 29.6 120.133 29.6C120.823 29.6 121.393 30.17 121.393 30.86C121.393 31.55 120.823 32.12 120.133 32.12ZM117.613 32.12C116.923 32.12 116.353 31.55 116.353 30.86C116.353 30.17 116.923 29.6 117.613 29.6C118.303 29.6 118.873 30.17 118.873 30.86C118.873 31.55 118.303 32.12 117.613 32.12ZM112.573 29C111.883 29 111.313 28.43 111.313 27.74C111.313 27.05 111.883 26.48 112.573 26.48C113.263 26.48 113.833 27.05 113.833 27.74C113.833 28.43 113.263 29 112.573 29ZM122.653 29C121.963 29 121.393 28.43 121.393 27.74C121.393 27.05 121.963 26.48 122.653 26.48C123.343 26.48 123.913 27.05 123.913 27.74C123.913 28.43 123.343 29 122.653 29ZM110.053 25.88C109.363 25.88 108.793 25.31 108.793 24.62C108.793 23.93 109.363 23.36 110.053 23.36C110.743 23.36 111.313 23.93 111.313 24.62C111.313 25.31 110.743 25.88 110.053 25.88ZM125.173 25.88C124.483 25.88 123.913 25.31 123.913 24.62C123.913 23.93 124.483 23.36 125.173 23.36C125.863 23.36 126.433 23.93 126.433 24.62C126.433 25.31 125.863 25.88 125.173 25.88ZM110.053 22.76C109.363 22.76 108.793 22.19 108.793 21.5C108.793 20.81 109.363 20.24 110.053 20.24C110.743 20.24 111.313 20.81 111.313 21.5C111.313 22.19 110.743 22.76 110.053 22.76ZM117.613 22.76C116.923 22.76 116.353 22.19 116.353 21.5C116.353 20.81 116.923 20.24 117.613 20.24C118.303 20.24 118.873 20.81 118.873 21.5C118.873 22.19 118.303 22.76 117.613 22.76ZM125.173 22.76C124.483 22.76 123.913 22.19 123.913 21.5C123.913 20.81 124.483 20.24 125.173 20.24C125.863 20.24 126.433 20.81 126.433 21.5C126.433 22.19 125.863 22.76 125.173 22.76ZM110.053 19.64C109.363 19.64 108.793 19.07 108.793 18.38C108.793 17.69 109.363 17.12 110.053 17.12C110.743 17.12 111.313 17.69 111.313 18.38C111.313 19.07 110.743 19.64 110.053 19.64ZM125.173 19.64C124.483 19.64 123.913 19.07 123.913 18.38C123.913 17.69 124.483 17.12 125.173 17.12C125.863 17.12 126.433 17.69 126.433 18.38C126.433 19.07 125.863 19.64 125.173 19.64ZM112.573 16.52C111.883 16.52 111.313 15.95 111.313 15.26C111.313 14.57 111.883 14 112.573 14C113.263 14 113.833 14.57 113.833 15.26C113.833 15.95 113.263 16.52 112.573 16.52ZM122.653 16.52C121.963 16.52 121.393 15.95 121.393 15.26C121.393 14.57 121.963 14 122.653 14C123.343 14 123.913 14.57 123.913 15.26C123.913 15.95 123.343 16.52 122.653 16.52ZM115.093 13.4C114.403 13.4 113.833 12.83 113.833 12.14C113.833 11.45 114.403 10.88 115.093 10.88C115.783 10.88 116.353 11.45 116.353 12.14C116.353 12.83 115.783 13.4 115.093 13.4ZM120.133 13.4C119.443 13.4 118.873 12.83 118.873 12.14C118.873 11.45 119.443 10.88 120.133 10.88C120.823 10.88 121.393 11.45 121.393 12.14C121.393 12.83 120.823 13.4 120.133 13.4ZM117.613 13.4C116.923 13.4 116.353 12.83 116.353 12.14C116.353 11.45 116.923 10.88 117.613 10.88C118.303 10.88 118.873 11.45 118.873 12.14C118.873 12.83 118.303 13.4 117.613 13.4Z" fill="#42FF60"/>
<path fill-rule="evenodd" clip-rule="evenodd" d="M158 21.5C158 28.1274 152.627 33.5 146 33.5C139.373 33.5 134 28.1274 134 21.5C134 14.8726 139.373 9.5 146 9.5C152.627 9.5 158 14.8726 158 21.5ZM145 15.5C145 16.0523 144.552 16.5 144 16.5C143.448 16.5 143 16.0523 143 15.5C143 14.9477 143.448 14.5 144 14.5C144.552 14.5 145 14.9477 145 15.5ZM147 15.5C147 16.0523 146.552 16.5 146 16.5C145.448 16.5 145 16.0523 145 15.5C145 14.9477 145.448 14.5 146 14.5C146.552 14.5 147 14.9477 147 15.5ZM149 15.5C149 16.0523 148.552 16.5 148 16.5C147.448 16.5 147 16.0523 147 15.5C147 14.9477 147.448 14.5 148 14.5C148.552 14.5 149 14.9477 149 15.5ZM149 15.5C149 14.9477 149.448 14.5 150 14.5C150.552 14.5 151 14.9477 151 15.5C151 16.0523 150.552 16.5 150 16.5C149.448 16.5 149 16.0523 149 15.5ZM142 18.5C142.552 18.5 143 18.0523 143 17.5C143 16.9477 142.552 16.5 142 16.5C141.448 16.5 141 16.9477 141 17.5C141 18.0523 141.448 18.5 142 18.5ZM140 20.5C140.552 20.5 141 20.0523 141 19.5C141 18.9477 140.552 18.5 140 18.5C139.448 18.5 139 18.9477 139 19.5C139 20.0523 139.448 20.5 140 20.5ZM140 22.5C139.448 22.5 139 22.0523 139 21.5C139 20.9477 139.448 20.5 140 20.5C140.552 20.5 141 20.9477 141 21.5C141 22.0523 140.552 22.5 140 22.5ZM140 24.5C140.552 24.5 141 24.0523 141 23.5C141 22.9477 140.552 22.5 140 22.5C139.448 22.5 139 22.9477 139 23.5C139 24.0523 139.448 24.5 140 24.5ZM140 24.5C139.448 24.5 139 24.9477 139 25.5C139 26.0523 139.448 26.5 140 26.5C140.552 26.5 141 26.0523 141 25.5C141 24.9477 140.552 24.5 140 24.5ZM144 27.5C144.552 27.5 145 27.0523 145 26.5C145 27.0523 145.448 27.5 146 27.5C146.552 27.5 147 27.0523 147 26.5C147 27.0523 147.448 27.5 148 27.5C148.552 27.5 149 27.0523 149 26.5C149 27.0523 149.448 27.5 150 27.5C150.552 27.5 151 27.0523 151 26.5C151 25.9477 150.552 25.5 150 25.5C150.552 25.5 151 25.0523 151 24.5C151 23.9477 150.552 23.5 150 23.5C150.552 23.5 151 23.0523 151 22.5C151 21.9477 150.552 21.5 150 21.5C150.552 21.5 151 21.0523 151 20.5C151 21.0523 151.448 21.5 152 21.5C152.552 21.5 153 21.0523 153 20.5C153 19.9477 152.552 19.5 152 19.5C151.448 19.5 151 19.9477 151 20.5C151 19.9477 150.552 19.5 150 19.5C149.448 19.5 149 19.9477 149 20.5C149 19.9477 148.552 19.5 148 19.5C147.448 19.5 147 19.9477 147 20.5C147 19.9477 146.552 19.5 146 19.5C145.448 19.5 145 19.9477 145 20.5C145 21.0523 145.448 21.5 146 21.5C146.552 21.5 147 21.0523 147 20.5C147 21.0523 147.448 21.5 148 21.5C148.552 21.5 149 21.0523 149 20.5C149 21.0523 149.448 21.5 150 21.5C149.448 21.5 149 21.9477 149 22.5C149 23.0523 149.448 23.5 150 23.5C149.448 23.5 149 23.9477 149 24.5C149 25.0523 149.448 25.5 150 25.5C149.448 25.5 149 25.9477 149 26.5C149 25.9477 148.552 25.5 148 25.5C147.448 25.5 147 25.9477 147 26.5C147 25.9477 146.552 25.5 146 25.5C145.448 25.5 145 25.9477 145 26.5C145 25.9477 144.552 25.5 144 25.5C143.448 25.5 143 25.9477 143 26.5C143 25.9477 142.552 25.5 142 25.5C141.448 25.5 141 25.9477 141 26.5C141 27.0523 141.448 27.5 142 27.5C142.552 27.5 143 27.0523 143 26.5C143 27.0523 143.448 27.5 144 27.5Z" fill="#42FF60"/>
</svg>
