<svg width="16" height="17" viewBox="0 0 16 17" fill="none" xmlns="http://www.w3.org/2000/svg">
<path d="M13.6979 4.57714C13.6507 4.6254 13.5943 4.66374 13.5322 4.68994C13.4701 4.71615 13.4034 4.72969 13.336 4.72979H0.512903C0.0596236 4.72979 -0.169976 4.1747 0.146904 3.84506L2.25026 1.65667C2.29763 1.60723 2.35443 1.56788 2.41727 1.54096C2.48011 1.51404 2.5477 1.50011 2.61602 1.5H15.4871C15.9431 1.5 16.1715 2.06088 15.849 2.38892L13.6979 4.57714ZM13.6979 14.3513C13.6014 14.4467 13.4714 14.5001 13.336 14.5H0.512903C0.0596236 14.5 -0.169976 13.9588 0.146904 13.6374L2.25026 11.5036C2.29822 11.4552 2.35525 11.4167 2.41807 11.3905C2.48088 11.3643 2.54824 11.3509 2.61626 11.351H15.4871C15.9431 11.351 16.1715 11.8978 15.849 12.2176L13.6979 14.3513ZM13.6979 6.57407C13.6014 6.47871 13.4714 6.42534 13.336 6.42552H0.512903C0.0596236 6.42552 -0.169976 6.96671 0.146904 7.28816L2.25026 9.42183C2.29818 9.47026 2.35517 9.50868 2.41794 9.53488C2.48072 9.56108 2.54804 9.57454 2.61602 9.57448H15.4871C15.9431 9.57448 16.1715 9.02767 15.849 8.7079L13.6979 6.57407Z" fill="#FF61EF"/>
</svg>
