<svg width="42" height="42" viewBox="0 0 42 42" fill="none" xmlns="http://www.w3.org/2000/svg">
<path id="Subtract" fill-rule="evenodd" clip-rule="evenodd" d="M0.653961 3.27606C0 4.55953 0 6.23968 0 9.6V32.4C0 35.7603 0 37.4405 0.653961 38.7239C1.2292 39.8529 2.14708 40.7708 3.27606 41.346C4.55953 42 6.23968 42 9.6 42H32.4C35.7603 42 37.4405 42 38.7239 41.346C39.8529 40.7708 40.7708 39.8529 41.346 38.7239C42 37.4405 42 35.7603 42 32.4V9.6C42 6.23969 42 4.55953 41.346 3.27606C40.7708 2.14708 39.8529 1.2292 38.7239 0.653961C37.4405 0 35.7603 0 32.4 0H9.6C6.23969 0 4.55953 0 3.27606 0.653961C2.14708 1.2292 1.2292 2.14708 0.653961 3.27606ZM18.0206 22.2796L7.70153 8.59091H15.6547L22.4197 17.565L30.7925 8.59091H33.1295L23.4639 18.9504L34.3636 33.4091H26.4105L19.0648 23.6651L9.97344 33.4091H7.63636L18.0206 22.2796ZM14.7921 10.2988H11.1384L27.2725 31.7009H30.9262L14.7921 10.2988Z" fill="black"/>
</svg>
