<svg width="24" height="24" viewBox="0 0 24 24" fill="none" xmlns="http://www.w3.org/2000/svg">
<path fill-rule="evenodd" clip-rule="evenodd" d="M7.42868 11.9999C9.00663 11.9999 10.2858 10.7207 10.2858 9.14279C10.2858 7.56483 9.00663 6.28564 7.42868 6.28564C5.85072 6.28564 4.57153 7.56483 4.57153 9.14279C4.57153 10.7207 5.85072 11.9999 7.42868 11.9999Z" fill="#FAF5E9"/>
<path d="M0 10.4C0 5.76081 3.76081 2 8.4 2H12.4457H15.6C20.2392 2 24 5.76081 24 10.4C24 15.0392 20.2392 18.8 15.6 18.8H14.5893C13.6966 18.8 12.8223 19.0539 12.0685 19.5322L6.60248 23L7.69188 18.8C3.44377 18.8 0 15.3562 0 11.1081V10.4Z" fill="#FAF5E9"/>
</svg>
