<svg width="18" height="22" viewBox="0 0 18 22" fill="none" xmlns="http://www.w3.org/2000/svg">
<g id="Group 10816">
<path id="Subtract" fill-rule="evenodd" clip-rule="evenodd" d="M12.2843 5L0.329956 6.04587L1.72445 21.985L13.6788 20.9391L12.2843 5ZM9.81911 11.2439C9.96352 12.8945 8.74255 14.3496 7.092 14.494C5.44145 14.6384 3.98635 13.4174 3.84195 11.7669C3.69754 10.1163 4.91851 8.66123 6.56906 8.51683C8.21961 8.37242 9.67471 9.5934 9.81911 11.2439ZM2.34437 17.5969L2.22235 16.2022L12.1843 15.3307L12.3063 16.7253L2.34437 17.5969Z" fill="#FF61EF"/>
<path id="Subtract_2" fill-rule="evenodd" clip-rule="evenodd" d="M17.6787 1.04587L5.72441 0L5.37579 3.98478L5.35657 4.21453L13.7147 3.48329L14.8852 16.8626L16.2843 16.985L17.6787 1.04587Z" fill="#FF61EF"/>
</g>
</svg>
