<svg width="96" height="96" viewBox="0 0 96 96" fill="none" xmlns="http://www.w3.org/2000/svg">
<g id="icons-24/error box">
<path id="Subtract" fill-rule="evenodd" clip-rule="evenodd" d="M84 32H12V92H26.4H48H69.6H84V32ZM22.0201 45.9799L28.0402 52L22.0201 58.0201L25.9799 61.9799L32 55.9598L38.0201 61.9799L41.9799 58.0201L35.9598 52L41.9799 45.9799L38.0201 42.0201L32 48.0402L25.9799 42.0201L22.0201 45.9799ZM54.0201 45.9799L60.0402 52L54.0201 58.0201L57.9799 61.9799L64 55.9598L70.0201 61.9799L73.9799 58.0201L67.9598 52L73.9799 45.9799L70.0201 42.0201L64 48.0402L57.9799 42.0201L54.0201 45.9799ZM48 82C52.9706 82 57 77.9706 57 73C57 68.0294 52.9706 64 48 64C43.0294 64 39 68.0294 39 73C39 77.9706 43.0294 82 48 82Z" fill="black"/>
<path id="Union" d="M52 0H70L84 24H66L52 0Z" fill="black"/>
<path id="Union_2" d="M44 0H26L12 24H30L44 0Z" fill="black"/>
</g>
</svg>
